<?xml version="1.0" encoding="UTF-8" standalone="no"?>
<svg
   xmlns:dc="http://purl.org/dc/elements/1.1/"
   xmlns:cc="http://creativecommons.org/ns#"
   xmlns:rdf="http://www.w3.org/1999/02/22-rdf-syntax-ns#"
   xmlns:svg="http://www.w3.org/2000/svg"
   xmlns="http://www.w3.org/2000/svg"
   xmlns:sodipodi="http://sodipodi.sourceforge.net/DTD/sodipodi-0.dtd"
   xmlns:inkscape="http://www.inkscape.org/namespaces/inkscape"
   version="1.1"
   width="24"
   height="24"
   viewBox="0 0 24 24"
   id="svg2"
   inkscape:version="0.91 r13725"
   sodipodi:docname="monashGroup.svg">
  <metadata
     id="metadata10">
    <rdf:RDF>
      <cc:Work
         rdf:about="">
        <dc:format>image/svg+xml</dc:format>
        <dc:type
           rdf:resource="http://purl.org/dc/dcmitype/StillImage" />
      </cc:Work>
    </rdf:RDF>
  </metadata>
  <defs
     id="defs8" />
  <sodipodi:namedview
     pagecolor="#ffffff"
     bordercolor="#666666"
     borderopacity="1"
     objecttolerance="10"
     gridtolerance="10"
     guidetolerance="10"
     inkscape:pageopacity="0"
     inkscape:pageshadow="2"
     inkscape:window-width="1280"
     inkscape:window-height="661"
     id="namedview6"
     showgrid="false"
     inkscape:zoom="9.8333333"
     inkscape:cx="12"
     inkscape:cy="12"
     inkscape:window-x="-8"
     inkscape:window-y="-8"
     inkscape:window-maximized="1"
     inkscape:current-layer="layer1" />
  <g
     transform="translate(3.5689266,-1016.7155)"
     id="layer1"
     inkscape:label="Layer 1">
    <path
       style="color:#000000;display:inline;overflow:visible;visibility:visible;fill:#555555;fill-opacity:1;fill-rule:nonzero;stroke:none;stroke-width:7.91099977;marker:none;enable-background:accumulate"
       d="m 8.4310739,1021.7468 a 10.117372,6.9682562 0 0 0 -10.1172541,6.9688 10.117372,6.9682562 0 0 0 10.1172541,6.9686 10.117372,6.9682562 0 0 0 10.1172531,-6.9686 10.117372,6.9682562 0 0 0 -10.1172531,-6.9688 z m 0,3.418 a 3.5511307,3.5511307 0 0 1 3.5517121,3.5508 3.5511307,3.5511307 0 0 1 -3.5517121,3.5506 3.5511307,3.5511307 0 0 1 -3.5506771,-3.5506 3.5511307,3.5511307 0 0 1 3.5506771,-3.5508 z"
       id="path2985-7"
       inkscape:connector-curvature="0" />
  </g>
</svg>
